<?xml version="1.0" encoding="UTF-8"?>
<!DOCTYPE svg PUBLIC "-//W3C//DTD SVG 1.1//EN" "http://www.w3.org/Graphics/SVG/1.1/DTD/svg11.dtd">
<svg xmlns="http://www.w3.org/2000/svg" version="1.1" width="512px" height="512px" style="shape-rendering:geometricPrecision; text-rendering:geometricPrecision; image-rendering:optimizeQuality; fill-rule:evenodd; clip-rule:evenodd" xmlns:xlink="http://www.w3.org/1999/xlink">
<g><path style="opacity:0.967" fill="#000000" d="M 262.5,-0.5 C 268.167,-0.5 273.833,-0.5 279.5,-0.5C 292.428,3.22536 302.928,10.5587 311,21.5C 330.194,51.4666 336.861,84.1333 331,119.5C 329.989,125.902 328.655,132.235 327,138.5C 318.552,156.953 314.552,176.286 315,196.5C 315.893,197.081 316.893,197.415 318,197.5C 354.632,187.953 391.799,184.453 429.5,187C 475.107,192.934 495.941,218.767 492,264.5C 508.674,294.434 505.174,321.601 481.5,346C 486.923,362.92 486.756,379.754 481,396.5C 476.771,405.396 470.438,412.396 462,417.5C 460.745,446.742 447.245,468.242 421.5,482C 396.298,494.635 369.632,502.302 341.5,505C 271.871,511.863 202.704,508.697 134,495.5C 124.64,503.93 113.807,509.264 101.5,511.5C 92.5,511.5 83.5,511.5 74.5,511.5C 51.7555,508.211 33.2555,497.544 19,479.5C 14.635,472.741 11.635,465.408 10,457.5C 8.36249,401.528 8.02916,345.528 9,289.5C 14.1162,255.388 33.9495,236.555 68.5,233C 82.4692,231.516 96.4692,231.183 110.5,232C 114.129,232.314 117.462,233.481 120.5,235.5C 126.498,226.184 132.998,217.184 140,208.5C 152.333,195.5 164.667,182.5 177,169.5C 193.905,150.702 205.905,129.035 213,104.5C 217.74,86.7261 221.407,68.7261 224,50.5C 226.763,33.1684 234.597,18.6684 247.5,7C 252.324,3.92148 257.324,1.42148 262.5,-0.5 Z M 268.5,32.5 C 271.32,32.2475 273.986,32.7475 276.5,34C 289.754,47.0119 297.254,62.8452 299,81.5C 300.009,94.9235 299.342,108.257 297,121.5C 293.868,131.895 290.535,142.229 287,152.5C 282.331,167.852 280.664,183.519 282,199.5C 283.313,210.113 286.98,219.779 293,228.5C 296.324,232.244 300.491,233.911 305.5,233.5C 323.471,229.939 341.471,226.439 359.5,223C 383.42,218.338 407.42,217.671 431.5,221C 440.704,222.684 448.538,226.851 455,233.5C 457.721,238.652 459.221,244.152 459.5,250C 458.212,256.797 457.712,263.63 458,270.5C 460.632,275.814 463.299,281.147 466,286.5C 472.828,304.345 467.662,317.512 450.5,326C 445.912,331.005 444.412,336.838 446,343.5C 450.971,354.685 452.971,366.352 452,378.5C 451.064,382.207 449.231,385.374 446.5,388C 440.956,390.618 435.789,393.784 431,397.5C 429.032,400.737 427.865,404.237 427.5,408C 430.871,429.257 422.871,444.591 403.5,454C 380.302,464.55 355.969,470.883 330.5,473C 267.062,478.327 204.062,475.161 141.5,463.5C 141.333,398.499 141.5,333.499 142,268.5C 147.056,256.716 153.389,245.716 161,235.5C 176.667,218.5 192.333,201.5 208,184.5C 224.164,164.178 236.164,141.511 244,116.5C 249.871,92.934 255.204,69.2673 260,45.5C 261.849,40.4541 264.682,36.1208 268.5,32.5 Z M 79.5,264.5 C 88.1731,264.334 96.8397,264.5 105.5,265C 106.333,265.833 107.167,266.667 108,267.5C 108.667,336.167 108.667,404.833 108,473.5C 101.864,477.201 95.1978,479.201 88,479.5C 71.8132,479.109 58.1466,473.109 47,461.5C 44.5452,457.469 42.8786,453.136 42,448.5C 41.0257,394.135 41.359,339.802 43,285.5C 44.9633,279.201 48.7966,274.368 54.5,271C 62.6818,267.738 71.0151,265.571 79.5,264.5 Z"/></g>
</svg>
